# xmcd
#
# Track frame offsets:
#  150
#  21856
#  42363
#  60505
#  76524
#  90634
#  115958
#  131380
#  146665
#  161558
#  180713
#  195922
#
# Disc length: 2811 seconds
#
# Revision: 1
# Processed by: cddbd v1.5.2PL0 Copyright (c) Steve Scherf et al.
# Submitted via: AltoMP3_Maker 3.0
#
DISCID=910af90c
DTITLE=Jayne Denham - Sudden Change In Weather
DYEAR=2007
DGENRE=Country
TTITLE0=Song In Me
TTITLE1=Country Girl With a Rock and Roll Heart
TTITLE2=Cousin Jude
TTITLE3=At the Salon
TTITLE4=Chick Ute
TTITLE5=Sudden Change In Weather
TTITLE6=Running with the Breeze
TTITLE7=Moment In Time
TTITLE8=Follow the Sun
TTITLE9=All I Wanna Be
TTITLE10=Boy From Blackhill
TTITLE11=Things Like That
EXTD=
EXTT0=
EXTT1=
EXTT2=
EXTT3=
EXTT4=
EXTT5=
EXTT6=
EXTT7=
EXTT8=
EXTT9=
EXTT10=
EXTT11=
PLAYORDER=
